<svg xmlns="http://www.w3.org/2000/svg" xmlns:xlink="http://www.w3.org/1999/xlink" width="698" zoomAndPan="magnify" viewBox="0 0 523.5 529.499967" height="706" preserveAspectRatio="xMidYMid meet" version="1.0"><path fill="#f4900c" d="M 416.332031 454.972656 C 432.363281 471 457.863281 471.757812 472.984375 456.636719 C 488.109375 441.511719 487.351562 416.011719 471.324219 399.980469 L 172.203125 100.863281 C 156.171875 84.832031 130.671875 84.078125 115.550781 99.199219 C 100.425781 114.320312 101.183594 139.824219 117.214844 155.851562 Z M 416.332031 454.972656 " fill-opacity="1" fill-rule="nonzero"/><path fill="#66757f" d="M 308.015625 30.460938 C 308.015625 30.460938 225.53125 -10.78125 156.792969 57.957031 L 60.558594 154.1875 C 60.558594 154.1875 46.8125 140.441406 33.0625 154.1875 L 19.316406 167.9375 C 19.316406 167.9375 5.570312 181.683594 19.316406 195.433594 L 74.308594 250.421875 C 74.308594 250.421875 88.054688 264.167969 101.800781 250.421875 L 115.550781 236.675781 C 115.550781 236.675781 129.296875 222.925781 115.550781 209.179688 L 114.476562 208.105469 C 125.0625 197.894531 140.914062 187.484375 156.792969 195.433594 L 211.78125 140.441406 C 211.78125 140.441406 198.035156 99.199219 225.53125 71.703125 C 253.023438 44.207031 266.773438 44.207031 294.269531 44.207031 C 321.761719 44.207031 308.015625 30.460938 308.015625 30.460938 Z M 308.015625 30.460938 " fill-opacity="1" fill-rule="nonzero"/></svg>